# xmcd
#
# Track frame offsets:
#	187
#	15035
#	38182
#	52312
#	65602
#	79157
#	96300
#	111750
#
# Disc length: 1656 seconds
#
# Revision: 2
# Processed by: cddbd v1.5.2PL0 Copyright (c) Steve Scherf et al.
# Submitted via: EZCDAudioConverter 6.0.5.1
#
DISCID=63067608
DTITLE=The Judds - Live Studio Sessions
DYEAR=1994
DGENRE=Country
TTITLE0=Why Not Me
TTITLE1=Give A Little Love
TTITLE2=Cow Cow Boogie
TTITLE3=Working In The Coal Mine
TTITLE4=Rockin' With The Rhythm Of The Rain
TTITLE5=River Roll On
TTITLE6=Love Is Alive
TTITLE7=My Baby's Gone
EXTD=
EXTT0=
EXTT1=
EXTT2=
EXTT3=
EXTT4=
EXTT5=
EXTT6=
EXTT7=
PLAYORDER=
